<svg xmlns="http://www.w3.org/2000/svg" viewBox="0 0 400 650" width="400" height="650">
  <defs>
    <style>
      .body-part { cursor: pointer; transition: filter 0.2s; }
      .body-part:hover { filter: brightness(1.15) drop-shadow(0 0 6px rgba(74,144,226,0.6)); }
      .skin { fill: #FFDBB4; }
      .skin-dark { fill: #F5C49C; }
      .skin-accent { fill: #EDCDA3; }
      .clothes-top { fill: #4A90D9; }
      .shorts { fill: #5B6EAE; }
      .hair-color { fill: #8B4513; }
      .eye-color { fill: #2C3E50; }
    </style>
  </defs>

  <!-- Hair -->
  <g id="hair" class="body-part" data-part="hair">
    <ellipse cx="200" cy="95" rx="68" ry="55" class="hair-color"/>
    <ellipse cx="200" cy="80" rx="60" ry="35" class="hair-color"/>
    <circle cx="145" cy="105" r="18" class="hair-color"/>
    <circle cx="255" cy="105" r="18" class="hair-color"/>
  </g>

  <!-- Head -->
  <g id="head" class="body-part" data-part="head">
    <ellipse cx="200" cy="120" rx="55" ry="60" class="skin"/>
  </g>

  <!-- Forehead (darker tint) -->
  <g id="forehead" class="body-part" data-part="forehead">
    <rect x="160" y="78" width="80" height="28" rx="14" class="skin-accent" opacity="0.7"/>
  </g>

  <!-- Eyes -->
  <g id="eye" class="body-part" data-part="eye">
    <ellipse cx="180" cy="115" rx="10" ry="8" fill="white" stroke="#333" stroke-width="1"/>
    <circle cx="182" cy="115" r="4" class="eye-color"/>
    <circle cx="183" cy="113" r="1.5" fill="white"/>
    <ellipse cx="220" cy="115" rx="10" ry="8" fill="white" stroke="#333" stroke-width="1"/>
    <circle cx="222" cy="115" r="4" class="eye-color"/>
    <circle cx="223" cy="113" r="1.5" fill="white"/>
    <!-- Eyebrows -->
    <path d="M168 105 Q180 98 192 105" fill="none" stroke="#8B4513" stroke-width="2.5" stroke-linecap="round"/>
    <path d="M208 105 Q220 98 232 105" fill="none" stroke="#8B4513" stroke-width="2.5" stroke-linecap="round"/>
  </g>

  <!-- Ear -->
  <g id="ear" class="body-part" data-part="ear">
    <ellipse cx="145" cy="120" rx="10" ry="15" class="skin" stroke="#E8B88A" stroke-width="1"/>
    <ellipse cx="145" cy="120" rx="5" ry="8" class="skin-dark"/>
    <ellipse cx="255" cy="120" rx="10" ry="15" class="skin" stroke="#E8B88A" stroke-width="1"/>
    <ellipse cx="255" cy="120" rx="5" ry="8" class="skin-dark"/>
  </g>

  <!-- Nose (darker tint) -->
  <g id="nose" class="body-part" data-part="nose">
    <path d="M193 118 Q200 140 207 118" fill="#EDCDA3" stroke="#D4A574" stroke-width="2" stroke-linecap="round"/>
    <circle cx="194" cy="131" r="3" class="skin-accent"/>
    <circle cx="206" cy="131" r="3" class="skin-accent"/>
  </g>

  <!-- Cheek -->
  <g id="cheek" class="body-part" data-part="cheek">
    <ellipse cx="168" cy="135" rx="12" ry="8" fill="#FFB6B6" opacity="0.5"/>
    <ellipse cx="232" cy="135" rx="12" ry="8" fill="#FFB6B6" opacity="0.5"/>
  </g>

  <!-- Mouth -->
  <g id="mouth" class="body-part" data-part="mouth">
    <path d="M185 148 Q200 162 215 148" fill="#E57373" stroke="#C94040" stroke-width="1.5"/>
  </g>

  <!-- Lip -->
  <g id="lip" class="body-part" data-part="lip">
    <path d="M185 148 Q195 143 200 145 Q205 143 215 148" fill="#E88" stroke="none"/>
  </g>

  <!-- Chin (darker tint) -->
  <g id="chin" class="body-part" data-part="chin">
    <ellipse cx="200" cy="168" rx="20" ry="12" class="skin-accent" opacity="0.65"/>
  </g>

  <!-- Neck -->
  <g id="neck" class="body-part" data-part="neck">
    <rect x="185" y="175" width="30" height="25" rx="5" class="skin"/>
  </g>

  <!-- Shoulder -->
  <g id="shoulder" class="body-part" data-part="shoulder">
    <ellipse cx="135" cy="210" rx="25" ry="15" class="clothes-top"/>
    <ellipse cx="265" cy="210" rx="25" ry="15" class="clothes-top"/>
  </g>

  <!-- Chest -->
  <g id="chest" class="body-part" data-part="chest">
    <path d="M120 210 Q115 200 135 195 L185 195 Q200 192 215 195 L265 195 Q285 200 280 210 L280 280 Q200 290 120 280 Z" class="clothes-top"/>
    <!-- Shirt collar -->
    <path d="M185 195 L195 210 L200 205 L205 210 L215 195" fill="#3A7BC8" stroke="none"/>
  </g>

  <!-- Stomach -->
  <g id="stomach" class="body-part" data-part="stomach">
    <path d="M130 280 Q128 320 135 355 Q200 365 265 355 Q272 320 270 280 Q200 290 130 280 Z" class="clothes-top"/>
  </g>

  <!-- Arms -->
  <g id="arm" class="body-part" data-part="arm">
    <!-- Left upper arm (sleeve) -->
    <path d="M120 210 Q100 250 95 280 L115 285 Q118 255 135 220 Z" class="clothes-top"/>
    <!-- Left forearm (skin) -->
    <path d="M95 280 Q85 310 80 340 L100 345 Q103 315 115 285 Z" class="skin"/>
    <!-- Left hand -->
    <ellipse cx="88" cy="350" rx="15" ry="12" class="skin"/>
    <!-- Right upper arm (sleeve) -->
    <path d="M280 210 Q300 250 305 280 L285 285 Q282 255 265 220 Z" class="clothes-top"/>
    <!-- Right forearm (skin) -->
    <path d="M305 280 Q315 310 320 340 L300 345 Q297 315 285 285 Z" class="skin"/>
    <!-- Right hand -->
    <ellipse cx="312" cy="350" rx="15" ry="12" class="skin"/>
  </g>

  <!-- Elbow (darker tint) -->
  <g id="elbow" class="body-part" data-part="elbow">
    <circle cx="105" cy="282" r="10" class="skin-accent" opacity="0.7"/>
    <circle cx="295" cy="282" r="10" class="skin-accent" opacity="0.7"/>
  </g>

  <!-- Fingers — 5 per hand (rounded ovals) -->
  <g id="finger" class="body-part" data-part="finger">
    <!-- Left hand fingers: thumb + 4 fingers fanned out below the palm -->
    <!-- Thumb (shorter, angled outward) -->
    <ellipse cx="72" cy="345" rx="4" ry="8" transform="rotate(-35 72 345)" class="skin" stroke="#E8C9A0" stroke-width="0.5"/>
    <!-- Index -->
    <ellipse cx="75" cy="358" rx="3.5" ry="9" transform="rotate(-15 75 358)" class="skin" stroke="#E8C9A0" stroke-width="0.5"/>
    <!-- Middle (longest) -->
    <ellipse cx="83" cy="361" rx="3.5" ry="10" transform="rotate(-5 83 361)" class="skin" stroke="#E8C9A0" stroke-width="0.5"/>
    <!-- Ring -->
    <ellipse cx="91" cy="360" rx="3.5" ry="9" transform="rotate(5 91 360)" class="skin" stroke="#E8C9A0" stroke-width="0.5"/>
    <!-- Pinky (shortest) -->
    <ellipse cx="99" cy="357" rx="3" ry="7.5" transform="rotate(12 99 357)" class="skin" stroke="#E8C9A0" stroke-width="0.5"/>

    <!-- Right hand fingers (mirrored) -->
    <!-- Thumb -->
    <ellipse cx="328" cy="345" rx="4" ry="8" transform="rotate(35 328 345)" class="skin" stroke="#E8C9A0" stroke-width="0.5"/>
    <!-- Index -->
    <ellipse cx="325" cy="358" rx="3.5" ry="9" transform="rotate(15 325 358)" class="skin" stroke="#E8C9A0" stroke-width="0.5"/>
    <!-- Middle -->
    <ellipse cx="317" cy="361" rx="3.5" ry="10" transform="rotate(5 317 361)" class="skin" stroke="#E8C9A0" stroke-width="0.5"/>
    <!-- Ring -->
    <ellipse cx="309" cy="360" rx="3.5" ry="9" transform="rotate(-5 309 360)" class="skin" stroke="#E8C9A0" stroke-width="0.5"/>
    <!-- Pinky -->
    <ellipse cx="301" cy="357" rx="3" ry="7.5" transform="rotate(-12 301 357)" class="skin" stroke="#E8C9A0" stroke-width="0.5"/>
  </g>

  <!-- Shorts (waistband + legs) -->
  <g>
    <!-- Waistband -->
    <rect x="135" y="352" width="130" height="10" rx="3" fill="#4A4A4A"/>
    <rect x="193" y="350" width="14" height="14" rx="2" fill="#FFD700"/>
    <!-- Left short leg -->
    <path d="M140 362 L138 410 L178 410 L175 362 Z" class="shorts"/>
    <!-- Right short leg -->
    <path d="M222 362 L220 410 L260 410 L258 362 Z" class="shorts"/>
  </g>

  <!-- Legs (bare skin below shorts) -->
  <g id="leg" class="body-part" data-part="leg">
    <!-- Left leg -->
    <path d="M140 410 Q137 460 135 520 L170 522 Q170 460 175 410 Z" class="skin"/>
    <!-- Right leg -->
    <path d="M222 410 Q225 460 228 520 L263 522 Q260 460 258 410 Z" class="skin"/>
  </g>

  <!-- Knee (darker tint) -->
  <g id="knee" class="body-part" data-part="knee">
    <ellipse cx="157" cy="468" rx="14" ry="12" class="skin-accent" opacity="0.7"/>
    <ellipse cx="243" cy="468" rx="14" ry="12" class="skin-accent" opacity="0.7"/>
  </g>

  <!-- Feet (bare) -->
  <g id="foot" class="body-part" data-part="foot">
    <!-- Left foot -->
    <path d="M132 520 L128 555 Q125 570 145 572 L172 572 Q180 570 177 555 L173 520 Z" class="skin"/>
    <path d="M128 555 Q125 570 145 572 L172 572 Q180 570 177 555 Z" class="skin-dark"/>
    <!-- Right foot -->
    <path d="M225 520 L221 555 Q218 570 238 572 L265 572 Q273 570 270 555 L266 520 Z" class="skin"/>
    <path d="M221 555 Q218 570 238 572 L265 572 Q273 570 270 555 Z" class="skin-dark"/>
  </g>

  <!-- Toes — 5 per foot -->
  <g id="toe" class="body-part" data-part="toe">
    <!-- Left foot toes -->
    <circle cx="135" cy="572" r="4" class="skin-dark" stroke="#E8B88A" stroke-width="0.5"/>
    <circle cx="143" cy="574" r="4" class="skin-dark" stroke="#E8B88A" stroke-width="0.5"/>
    <circle cx="151" cy="575" r="4" class="skin-dark" stroke="#E8B88A" stroke-width="0.5"/>
    <circle cx="159" cy="574" r="4" class="skin-dark" stroke="#E8B88A" stroke-width="0.5"/>
    <circle cx="167" cy="572" r="4" class="skin-dark" stroke="#E8B88A" stroke-width="0.5"/>
    <!-- Right foot toes -->
    <circle cx="228" cy="572" r="4" class="skin-dark" stroke="#E8B88A" stroke-width="0.5"/>
    <circle cx="236" cy="574" r="4" class="skin-dark" stroke="#E8B88A" stroke-width="0.5"/>
    <circle cx="244" cy="575" r="4" class="skin-dark" stroke="#E8B88A" stroke-width="0.5"/>
    <circle cx="252" cy="574" r="4" class="skin-dark" stroke="#E8B88A" stroke-width="0.5"/>
    <circle cx="260" cy="572" r="4" class="skin-dark" stroke="#E8B88A" stroke-width="0.5"/>
  </g>
</svg>
